<mxfile host="65bd71144e">
    <diagram name="Page-1" id="ETMK86KujsUC3mSHv967">
        <mxGraphModel dx="197" dy="1924" grid="1" gridSize="10" guides="1" tooltips="1" connect="1" arrows="1" fold="1" page="1" pageScale="1" pageWidth="827" pageHeight="1169" math="0" shadow="0">
            <root>
                <mxCell id="0"/>
                <mxCell id="1" parent="0"/>
                <mxCell id="47" value="" style="rounded=1;whiteSpace=wrap;html=1;labelBackgroundColor=none;fillColor=#182E3E;strokeColor=#FFFFFF;fontColor=#FFFFFF;" parent="1" vertex="1">
                    <mxGeometry x="727" y="370" width="50" height="50" as="geometry"/>
                </mxCell>
                <mxCell id="32" value="" style="group" parent="1" vertex="1" connectable="0">
                    <mxGeometry x="677" y="280" width="150" height="50" as="geometry"/>
                </mxCell>
                <mxCell id="33" value="" style="rounded=1;whiteSpace=wrap;html=1;labelBackgroundColor=none;fillColor=#182E3E;strokeColor=#FFFFFF;fontColor=#FFFFFF;" parent="32" vertex="1">
                    <mxGeometry width="150" height="50" as="geometry"/>
                </mxCell>
                <mxCell id="34" value="&lt;span style=&quot;font-size: 15px;&quot;&gt;&lt;font style=&quot;color: rgb(255, 255, 255);&quot;&gt;OLA Buffer&lt;/font&gt;&lt;/span&gt;" style="text;html=1;align=center;verticalAlign=middle;whiteSpace=wrap;rounded=0;labelBackgroundColor=none;fontColor=#FFFFFF;" parent="32" vertex="1">
                    <mxGeometry x="45" y="10" width="60" height="30" as="geometry"/>
                </mxCell>
                <mxCell id="9" value="" style="group" parent="1" vertex="1" connectable="0">
                    <mxGeometry x="478.5" y="270" width="150" height="70" as="geometry"/>
                </mxCell>
                <mxCell id="10" value="" style="rounded=1;whiteSpace=wrap;html=1;labelBackgroundColor=none;fillColor=#182E3E;strokeColor=#FFFFFF;fontColor=#FFFFFF;" parent="9" vertex="1">
                    <mxGeometry width="150" height="70" as="geometry"/>
                </mxCell>
                <mxCell id="15" value="" style="group" parent="1" vertex="1" connectable="0">
                    <mxGeometry x="478.5" y="370" width="150" height="50" as="geometry"/>
                </mxCell>
                <mxCell id="16" value="" style="rounded=1;whiteSpace=wrap;html=1;labelBackgroundColor=none;fillColor=#182E3E;strokeColor=#FFFFFF;fontColor=#FFFFFF;" parent="15" vertex="1">
                    <mxGeometry width="150" height="50" as="geometry"/>
                </mxCell>
                <mxCell id="17" value="&lt;font style=&quot;font-size: 15px; color: rgb(255, 255, 255);&quot;&gt;OLA&lt;/font&gt;" style="text;html=1;align=center;verticalAlign=middle;whiteSpace=wrap;rounded=0;labelBackgroundColor=none;fontColor=#FFFFFF;" parent="15" vertex="1">
                    <mxGeometry x="45" y="10" width="60" height="30" as="geometry"/>
                </mxCell>
                <mxCell id="6" value="" style="group" parent="1" vertex="1" connectable="0">
                    <mxGeometry x="478.5" y="190" width="150" height="50" as="geometry"/>
                </mxCell>
                <mxCell id="7" value="" style="rounded=1;whiteSpace=wrap;html=1;labelBackgroundColor=none;fillColor=#182E3E;strokeColor=#FFFFFF;fontColor=#FFFFFF;" parent="6" vertex="1">
                    <mxGeometry width="150" height="50" as="geometry"/>
                </mxCell>
                <mxCell id="8" value="&lt;font style=&quot;font-size: 15px; color: rgb(255, 255, 255);&quot;&gt;Envelope Extraction&lt;/font&gt;" style="text;html=1;align=center;verticalAlign=middle;whiteSpace=wrap;rounded=0;labelBackgroundColor=none;fontColor=#FFFFFF;" parent="6" vertex="1">
                    <mxGeometry x="45" y="10" width="60" height="30" as="geometry"/>
                </mxCell>
                <mxCell id="3" value="" style="group" parent="1" vertex="1" connectable="0">
                    <mxGeometry x="478.5" y="110" width="150" height="50" as="geometry"/>
                </mxCell>
                <mxCell id="4" value="" style="rounded=1;whiteSpace=wrap;html=1;labelBackgroundColor=none;fillColor=#182E3E;strokeColor=#FFFFFF;fontColor=#FFFFFF;" parent="3" vertex="1">
                    <mxGeometry width="150" height="50" as="geometry"/>
                </mxCell>
                <mxCell id="5" value="&lt;font style=&quot;font-size: 14px; color: rgb(255, 255, 255);&quot;&gt;Hilbert-transform&lt;/font&gt;" style="text;html=1;align=center;verticalAlign=middle;whiteSpace=wrap;rounded=0;labelBackgroundColor=none;fontColor=#FFFFFF;" parent="3" vertex="1">
                    <mxGeometry x="20" y="10" width="110" height="30" as="geometry"/>
                </mxCell>
                <mxCell id="2" value="" style="rounded=1;whiteSpace=wrap;html=1;labelBackgroundColor=none;fillColor=#182E3E;strokeColor=#FFFFFF;fontColor=#FFFFFF;" parent="1" vertex="1">
                    <mxGeometry x="478.5" y="30" width="150" height="50" as="geometry"/>
                </mxCell>
                <mxCell id="3l54H0jpk-vekhEGEyEh-17" value="" style="edgeStyle=orthogonalEdgeStyle;rounded=0;orthogonalLoop=1;jettySize=auto;html=1;exitX=0.5;exitY=1;exitDx=0;exitDy=0;labelBackgroundColor=none;fontColor=default;strokeColor=light-dark(#234450,#000000);entryX=0.5;entryY=0;entryDx=0;entryDy=0;" parent="1" source="3l54H0jpk-vekhEGEyEh-1" target="7sJCCT2JWIlp2gaFB4CZ-1" edge="1">
                    <mxGeometry relative="1" as="geometry">
                        <mxPoint x="140" y="90" as="sourcePoint"/>
                        <mxPoint x="140" y="105" as="targetPoint"/>
                    </mxGeometry>
                </mxCell>
                <mxCell id="3l54H0jpk-vekhEGEyEh-18" value="" style="edgeStyle=orthogonalEdgeStyle;rounded=0;orthogonalLoop=1;jettySize=auto;html=1;entryX=0.5;entryY=0;entryDx=0;entryDy=0;labelBackgroundColor=none;fontColor=default;strokeColor=light-dark(#234450,#000000);" parent="1" source="3l54H0jpk-vekhEGEyEh-3" target="3l54H0jpk-vekhEGEyEh-4" edge="1">
                    <mxGeometry relative="1" as="geometry"/>
                </mxCell>
                <mxCell id="3l54H0jpk-vekhEGEyEh-22" style="edgeStyle=orthogonalEdgeStyle;rounded=0;orthogonalLoop=1;jettySize=auto;html=1;exitX=0.5;exitY=1;exitDx=0;exitDy=0;entryX=0.5;entryY=0;entryDx=0;entryDy=0;labelBackgroundColor=none;fontColor=default;strokeColor=light-dark(#234450,#000000);" parent="1" source="3l54H0jpk-vekhEGEyEh-4" target="3l54H0jpk-vekhEGEyEh-5" edge="1">
                    <mxGeometry relative="1" as="geometry"/>
                </mxCell>
                <mxCell id="3l54H0jpk-vekhEGEyEh-20" value="" style="edgeStyle=orthogonalEdgeStyle;rounded=0;orthogonalLoop=1;jettySize=auto;html=1;entryX=0.5;entryY=0;entryDx=0;entryDy=0;labelBackgroundColor=none;fontColor=default;strokeColor=light-dark(#234450,#000000);" parent="1" source="3l54H0jpk-vekhEGEyEh-5" target="3l54H0jpk-vekhEGEyEh-6" edge="1">
                    <mxGeometry relative="1" as="geometry">
                        <mxPoint x="140" y="440" as="targetPoint"/>
                    </mxGeometry>
                </mxCell>
                <mxCell id="3l54H0jpk-vekhEGEyEh-27" value="&lt;h1 style=&quot;margin-top: 0px;&quot;&gt;&lt;font style=&quot;color: rgb(0, 0, 0);&quot;&gt;Broadband&lt;/font&gt;&lt;/h1&gt;" style="text;html=1;whiteSpace=wrap;overflow=hidden;rounded=0;labelBackgroundColor=none;fontColor=#FFFFFF;" parent="1" vertex="1">
                    <mxGeometry x="72.5" y="-120" width="135" height="40" as="geometry"/>
                </mxCell>
                <mxCell id="7sJCCT2JWIlp2gaFB4CZ-2" value="" style="edgeStyle=orthogonalEdgeStyle;rounded=0;orthogonalLoop=1;jettySize=auto;html=1;exitX=0.5;exitY=1;exitDx=0;exitDy=0;labelBackgroundColor=none;fontColor=default;strokeColor=light-dark(#234450,#000000);entryX=0.5;entryY=0;entryDx=0;entryDy=0;" parent="1" source="7sJCCT2JWIlp2gaFB4CZ-1" target="3l54H0jpk-vekhEGEyEh-3" edge="1">
                    <mxGeometry relative="1" as="geometry">
                        <mxPoint x="140" y="165" as="sourcePoint"/>
                        <mxPoint x="140" y="180" as="targetPoint"/>
                        <Array as="points"/>
                    </mxGeometry>
                </mxCell>
                <mxCell id="7sJCCT2JWIlp2gaFB4CZ-4" value="" style="rounded=1;whiteSpace=wrap;html=1;labelBackgroundColor=none;fillColor=#182E3E;strokeColor=#FFFFFF;fontColor=#FFFFFF;" parent="1" vertex="1">
                    <mxGeometry x="468.5" y="20" width="150" height="50" as="geometry"/>
                </mxCell>
                <mxCell id="7sJCCT2JWIlp2gaFB4CZ-5" value="" style="edgeStyle=orthogonalEdgeStyle;rounded=0;orthogonalLoop=1;jettySize=auto;html=1;exitX=0.5;exitY=1;exitDx=0;exitDy=0;labelBackgroundColor=none;fontColor=default;strokeColor=light-dark(#234450,#000000);entryX=0.5;entryY=0;entryDx=0;entryDy=0;" parent="1" source="7sJCCT2JWIlp2gaFB4CZ-4" target="7sJCCT2JWIlp2gaFB4CZ-25" edge="1">
                    <mxGeometry relative="1" as="geometry">
                        <mxPoint x="543.5" y="90" as="sourcePoint"/>
                        <mxPoint x="543.5" y="105" as="targetPoint"/>
                    </mxGeometry>
                </mxCell>
                <mxCell id="7sJCCT2JWIlp2gaFB4CZ-6" value="&lt;font style=&quot;font-size: 14px; color: rgb(255, 255, 255);&quot;&gt;Raw Audio Channel Data&lt;/font&gt;" style="text;html=1;align=center;verticalAlign=middle;whiteSpace=wrap;rounded=0;labelBackgroundColor=none;fontColor=#FFFFFF;" parent="1" vertex="1">
                    <mxGeometry x="488.5" y="30" width="110" height="30" as="geometry"/>
                </mxCell>
                <mxCell id="7sJCCT2JWIlp2gaFB4CZ-7" value="" style="edgeStyle=orthogonalEdgeStyle;rounded=0;orthogonalLoop=1;jettySize=auto;html=1;entryX=0.5;entryY=0;entryDx=0;entryDy=0;labelBackgroundColor=none;fontColor=default;strokeColor=light-dark(#234450,#000000);" parent="1" source="7sJCCT2JWIlp2gaFB4CZ-8" target="7sJCCT2JWIlp2gaFB4CZ-10" edge="1">
                    <mxGeometry relative="1" as="geometry"/>
                </mxCell>
                <mxCell id="7sJCCT2JWIlp2gaFB4CZ-24" value="&lt;h1 style=&quot;margin-top: 0px;&quot;&gt;&lt;font style=&quot;color: rgb(0, 0, 0);&quot;&gt;Broadband - Live&lt;/font&gt;&lt;/h1&gt;" style="text;html=1;whiteSpace=wrap;overflow=hidden;rounded=0;labelBackgroundColor=none;fontColor=#FFFFFF;" parent="1" vertex="1">
                    <mxGeometry x="451" y="-120" width="205" height="40" as="geometry"/>
                </mxCell>
                <mxCell id="7sJCCT2JWIlp2gaFB4CZ-26" value="" style="edgeStyle=orthogonalEdgeStyle;rounded=0;orthogonalLoop=1;jettySize=auto;html=1;exitX=0.5;exitY=1;exitDx=0;exitDy=0;labelBackgroundColor=none;fontColor=default;strokeColor=light-dark(#234450,#000000);entryX=0.5;entryY=0;entryDx=0;entryDy=0;" parent="1" source="7sJCCT2JWIlp2gaFB4CZ-25" target="7sJCCT2JWIlp2gaFB4CZ-8" edge="1">
                    <mxGeometry relative="1" as="geometry">
                        <mxPoint x="543.5" y="165" as="sourcePoint"/>
                        <mxPoint x="543.5" y="180" as="targetPoint"/>
                        <Array as="points"/>
                    </mxGeometry>
                </mxCell>
                <mxCell id="7sJCCT2JWIlp2gaFB4CZ-28" value="" style="group" parent="1" vertex="1" connectable="0">
                    <mxGeometry x="468.5" y="600" width="150" height="50" as="geometry"/>
                </mxCell>
                <mxCell id="85" value="" style="edgeStyle=elbowEdgeStyle;html=1;" edge="1" parent="7sJCCT2JWIlp2gaFB4CZ-28" source="7sJCCT2JWIlp2gaFB4CZ-15">
                    <mxGeometry relative="1" as="geometry">
                        <mxPoint x="175.5" y="199" as="targetPoint"/>
                        <Array as="points">
                            <mxPoint x="176" y="110"/>
                        </Array>
                    </mxGeometry>
                </mxCell>
                <mxCell id="7sJCCT2JWIlp2gaFB4CZ-15" value="" style="rounded=1;whiteSpace=wrap;html=1;labelBackgroundColor=none;fillColor=#182E3E;strokeColor=#FFFFFF;fontColor=#FFFFFF;" parent="7sJCCT2JWIlp2gaFB4CZ-28" vertex="1">
                    <mxGeometry width="150" height="50" as="geometry"/>
                </mxCell>
                <mxCell id="7sJCCT2JWIlp2gaFB4CZ-16" value="&lt;font style=&quot;font-size: 15px; color: rgb(252, 252, 252);&quot;&gt;FIFO Buffer&lt;/font&gt;" style="text;html=1;align=center;verticalAlign=middle;whiteSpace=wrap;rounded=0;labelBackgroundColor=none;fontColor=#FFFFFF;" parent="7sJCCT2JWIlp2gaFB4CZ-28" vertex="1">
                    <mxGeometry x="45" y="10" width="60" height="30" as="geometry"/>
                </mxCell>
                <mxCell id="7sJCCT2JWIlp2gaFB4CZ-29" value="" style="group" parent="1" vertex="1" connectable="0">
                    <mxGeometry x="468.5" y="520" width="150" height="50" as="geometry"/>
                </mxCell>
                <mxCell id="7sJCCT2JWIlp2gaFB4CZ-12" value="" style="rounded=1;whiteSpace=wrap;html=1;labelBackgroundColor=none;fillColor=#182E3E;strokeColor=#FFFFFF;fontColor=#FFFFFF;" parent="7sJCCT2JWIlp2gaFB4CZ-29" vertex="1">
                    <mxGeometry width="150" height="50" as="geometry"/>
                </mxCell>
                <mxCell id="7sJCCT2JWIlp2gaFB4CZ-17" value="&lt;font style=&quot;font-size: 15px; color: rgb(255, 255, 255);&quot;&gt;dB Scale&lt;/font&gt;" style="text;html=1;align=center;verticalAlign=middle;whiteSpace=wrap;rounded=0;labelBackgroundColor=none;fontColor=#FFFFFF;" parent="7sJCCT2JWIlp2gaFB4CZ-29" vertex="1">
                    <mxGeometry x="45" y="10" width="60" height="30" as="geometry"/>
                </mxCell>
                <mxCell id="7sJCCT2JWIlp2gaFB4CZ-30" value="" style="group" parent="1" vertex="1" connectable="0">
                    <mxGeometry x="468.5" y="260" width="150" height="70" as="geometry"/>
                </mxCell>
                <mxCell id="7sJCCT2JWIlp2gaFB4CZ-10" value="" style="rounded=1;whiteSpace=wrap;html=1;labelBackgroundColor=none;fillColor=#182E3E;strokeColor=#FFFFFF;fontColor=#FFFFFF;" parent="7sJCCT2JWIlp2gaFB4CZ-30" vertex="1">
                    <mxGeometry width="150" height="70" as="geometry"/>
                </mxCell>
                <mxCell id="7sJCCT2JWIlp2gaFB4CZ-18" value="&lt;font style=&quot;font-size: 16px; color: rgb(255, 255, 255);&quot;&gt;Downsampling&lt;/font&gt;&lt;div&gt;&lt;font style=&quot;font-size: 16px; color: rgb(255, 255, 255);&quot;&gt;&amp;amp;&lt;/font&gt;&lt;/div&gt;&lt;div&gt;&lt;font style=&quot;font-size: 16px; color: rgb(255, 255, 255);&quot;&gt;Filtering&lt;/font&gt;&lt;/div&gt;" style="text;html=1;align=center;verticalAlign=middle;whiteSpace=wrap;rounded=0;labelBackgroundColor=none;fontColor=#FFFFFF;" parent="7sJCCT2JWIlp2gaFB4CZ-30" vertex="1">
                    <mxGeometry x="20" y="20" width="110" height="30" as="geometry"/>
                </mxCell>
                <mxCell id="7sJCCT2JWIlp2gaFB4CZ-31" value="" style="group" parent="1" vertex="1" connectable="0">
                    <mxGeometry x="468.5" y="180" width="150" height="50" as="geometry"/>
                </mxCell>
                <mxCell id="7sJCCT2JWIlp2gaFB4CZ-8" value="" style="rounded=1;whiteSpace=wrap;html=1;labelBackgroundColor=none;fillColor=#182E3E;strokeColor=#FFFFFF;fontColor=#FFFFFF;" parent="7sJCCT2JWIlp2gaFB4CZ-31" vertex="1">
                    <mxGeometry width="150" height="50" as="geometry"/>
                </mxCell>
                <mxCell id="7sJCCT2JWIlp2gaFB4CZ-19" value="&lt;font style=&quot;font-size: 15px; color: rgb(255, 255, 255);&quot;&gt;Envelope Extraction&lt;/font&gt;" style="text;html=1;align=center;verticalAlign=middle;whiteSpace=wrap;rounded=0;labelBackgroundColor=none;fontColor=#FFFFFF;" parent="7sJCCT2JWIlp2gaFB4CZ-31" vertex="1">
                    <mxGeometry x="45" y="10" width="60" height="30" as="geometry"/>
                </mxCell>
                <mxCell id="7sJCCT2JWIlp2gaFB4CZ-32" value="" style="group" parent="1" vertex="1" connectable="0">
                    <mxGeometry x="468.5" y="100" width="150" height="50" as="geometry"/>
                </mxCell>
                <mxCell id="7sJCCT2JWIlp2gaFB4CZ-25" value="" style="rounded=1;whiteSpace=wrap;html=1;labelBackgroundColor=none;fillColor=#182E3E;strokeColor=#FFFFFF;fontColor=#FFFFFF;" parent="7sJCCT2JWIlp2gaFB4CZ-32" vertex="1">
                    <mxGeometry width="150" height="50" as="geometry"/>
                </mxCell>
                <mxCell id="7sJCCT2JWIlp2gaFB4CZ-27" value="&lt;font style=&quot;font-size: 14px; color: rgb(255, 255, 255);&quot;&gt;Hilbert-transform&lt;/font&gt;" style="text;html=1;align=center;verticalAlign=middle;whiteSpace=wrap;rounded=0;labelBackgroundColor=none;fontColor=#FFFFFF;" parent="7sJCCT2JWIlp2gaFB4CZ-32" vertex="1">
                    <mxGeometry x="20" y="10" width="110" height="30" as="geometry"/>
                </mxCell>
                <mxCell id="7sJCCT2JWIlp2gaFB4CZ-33" value="" style="group" parent="1" vertex="1" connectable="0">
                    <mxGeometry x="468.5" y="680" width="150" height="50" as="geometry"/>
                </mxCell>
                <mxCell id="7sJCCT2JWIlp2gaFB4CZ-13" value="" style="rounded=1;whiteSpace=wrap;html=1;labelBackgroundColor=none;fillColor=#182E3E;strokeColor=#FFFFFF;fontColor=#FFFFFF;" parent="7sJCCT2JWIlp2gaFB4CZ-33" vertex="1">
                    <mxGeometry width="150" height="50" as="geometry"/>
                </mxCell>
                <mxCell id="7sJCCT2JWIlp2gaFB4CZ-21" value="&lt;font style=&quot;font-size: 15px; color: rgb(255, 255, 255);&quot;&gt;Trigger Detection&lt;/font&gt;" style="text;html=1;align=center;verticalAlign=middle;whiteSpace=wrap;rounded=0;labelBackgroundColor=none;fontColor=#FFFFFF;" parent="7sJCCT2JWIlp2gaFB4CZ-33" vertex="1">
                    <mxGeometry x="45" y="10" width="60" height="30" as="geometry"/>
                </mxCell>
                <mxCell id="7sJCCT2JWIlp2gaFB4CZ-36" value="" style="group" parent="1" vertex="1" connectable="0">
                    <mxGeometry x="65" y="440" width="150" height="50" as="geometry"/>
                </mxCell>
                <mxCell id="3l54H0jpk-vekhEGEyEh-6" value="" style="rounded=1;whiteSpace=wrap;html=1;labelBackgroundColor=none;fillColor=#182E3E;strokeColor=#FFFFFF;fontColor=#FFFFFF;" parent="7sJCCT2JWIlp2gaFB4CZ-36" vertex="1">
                    <mxGeometry width="150" height="50" as="geometry"/>
                </mxCell>
                <mxCell id="3l54H0jpk-vekhEGEyEh-12" value="&lt;font style=&quot;font-size: 15px; color: rgb(252, 252, 252);&quot;&gt;Trigger Detection&lt;/font&gt;" style="text;html=1;align=center;verticalAlign=middle;whiteSpace=wrap;rounded=0;labelBackgroundColor=none;fontColor=#FFFFFF;" parent="7sJCCT2JWIlp2gaFB4CZ-36" vertex="1">
                    <mxGeometry x="45" y="10" width="60" height="30" as="geometry"/>
                </mxCell>
                <mxCell id="7sJCCT2JWIlp2gaFB4CZ-37" value="" style="group" parent="1" vertex="1" connectable="0">
                    <mxGeometry x="65" y="360" width="150" height="50" as="geometry"/>
                </mxCell>
                <mxCell id="3l54H0jpk-vekhEGEyEh-5" value="" style="rounded=1;whiteSpace=wrap;html=1;labelBackgroundColor=none;fillColor=#182E3E;strokeColor=#FFFFFF;fontColor=#FFFFFF;" parent="7sJCCT2JWIlp2gaFB4CZ-37" vertex="1">
                    <mxGeometry width="150" height="50" as="geometry"/>
                </mxCell>
                <mxCell id="3l54H0jpk-vekhEGEyEh-9" value="&lt;font style=&quot;font-size: 15px; color: rgb(247, 247, 247);&quot;&gt;dB Scale&lt;/font&gt;" style="text;html=1;align=center;verticalAlign=middle;whiteSpace=wrap;rounded=0;labelBackgroundColor=none;fontColor=#FFFFFF;" parent="7sJCCT2JWIlp2gaFB4CZ-37" vertex="1">
                    <mxGeometry x="45" y="10" width="60" height="30" as="geometry"/>
                </mxCell>
                <mxCell id="7sJCCT2JWIlp2gaFB4CZ-38" value="" style="group" parent="1" vertex="1" connectable="0">
                    <mxGeometry x="65" y="260" width="150" height="70" as="geometry"/>
                </mxCell>
                <mxCell id="3l54H0jpk-vekhEGEyEh-4" value="" style="rounded=1;whiteSpace=wrap;html=1;labelBackgroundColor=none;fillColor=#182E3E;strokeColor=#FFFFFF;fontColor=#FFFFFF;" parent="7sJCCT2JWIlp2gaFB4CZ-38" vertex="1">
                    <mxGeometry width="150" height="70" as="geometry"/>
                </mxCell>
                <mxCell id="3l54H0jpk-vekhEGEyEh-10" value="&lt;font style=&quot;font-size: 16px; color: rgb(255, 255, 255);&quot;&gt;Downsampling&lt;/font&gt;&lt;div&gt;&lt;font style=&quot;font-size: 16px; color: rgb(255, 255, 255);&quot;&gt;&amp;amp;&lt;/font&gt;&lt;/div&gt;&lt;div&gt;&lt;font style=&quot;font-size: 16px; color: rgb(255, 255, 255);&quot;&gt;Filtering&lt;/font&gt;&lt;/div&gt;" style="text;html=1;align=center;verticalAlign=middle;whiteSpace=wrap;rounded=0;labelBackgroundColor=none;fontColor=#FFFFFF;" parent="7sJCCT2JWIlp2gaFB4CZ-38" vertex="1">
                    <mxGeometry x="20" y="20" width="110" height="30" as="geometry"/>
                </mxCell>
                <mxCell id="7sJCCT2JWIlp2gaFB4CZ-39" value="" style="group" parent="1" vertex="1" connectable="0">
                    <mxGeometry x="65" y="180" width="150" height="50" as="geometry"/>
                </mxCell>
                <mxCell id="3l54H0jpk-vekhEGEyEh-3" value="" style="rounded=1;whiteSpace=wrap;html=1;labelBackgroundColor=none;fillColor=#182E3E;strokeColor=#FFFFFF;fontColor=#FFFFFF;" parent="7sJCCT2JWIlp2gaFB4CZ-39" vertex="1">
                    <mxGeometry width="150" height="50" as="geometry"/>
                </mxCell>
                <mxCell id="3l54H0jpk-vekhEGEyEh-11" value="&lt;font style=&quot;font-size: 15px; color: rgb(255, 255, 255);&quot;&gt;Envelope Extraction&lt;/font&gt;" style="text;html=1;align=center;verticalAlign=middle;whiteSpace=wrap;rounded=0;labelBackgroundColor=none;fontColor=#FFFFFF;" parent="7sJCCT2JWIlp2gaFB4CZ-39" vertex="1">
                    <mxGeometry x="45" y="10" width="60" height="30" as="geometry"/>
                </mxCell>
                <mxCell id="7sJCCT2JWIlp2gaFB4CZ-40" value="" style="group" parent="1" vertex="1" connectable="0">
                    <mxGeometry x="65" y="100" width="150" height="50" as="geometry"/>
                </mxCell>
                <mxCell id="7sJCCT2JWIlp2gaFB4CZ-1" value="" style="rounded=1;whiteSpace=wrap;html=1;labelBackgroundColor=none;fillColor=#182E3E;strokeColor=#FFFFFF;fontColor=#FFFFFF;" parent="7sJCCT2JWIlp2gaFB4CZ-40" vertex="1">
                    <mxGeometry width="150" height="50" as="geometry"/>
                </mxCell>
                <mxCell id="7sJCCT2JWIlp2gaFB4CZ-3" value="&lt;font style=&quot;font-size: 14px; color: rgb(250, 250, 250);&quot;&gt;Hilbert-transform&lt;/font&gt;" style="text;html=1;align=center;verticalAlign=middle;whiteSpace=wrap;rounded=0;labelBackgroundColor=none;fontColor=#FFFFFF;" parent="7sJCCT2JWIlp2gaFB4CZ-40" vertex="1">
                    <mxGeometry x="20" y="10" width="110" height="30" as="geometry"/>
                </mxCell>
                <mxCell id="7sJCCT2JWIlp2gaFB4CZ-41" value="" style="group;fillColor=none;" parent="1" vertex="1" connectable="0">
                    <mxGeometry x="65" y="20" width="150" height="50" as="geometry"/>
                </mxCell>
                <mxCell id="3l54H0jpk-vekhEGEyEh-1" value="" style="rounded=1;whiteSpace=wrap;html=1;labelBackgroundColor=none;fillColor=#182E3E;strokeColor=#FFFFFF;fontColor=#FFFFFF;" parent="7sJCCT2JWIlp2gaFB4CZ-41" vertex="1">
                    <mxGeometry width="150" height="50" as="geometry"/>
                </mxCell>
                <mxCell id="3l54H0jpk-vekhEGEyEh-2" value="&lt;font style=&quot;font-size: 14px; color: rgb(255, 255, 255);&quot;&gt;Raw Audio Data&lt;/font&gt;" style="text;html=1;align=center;verticalAlign=middle;whiteSpace=wrap;rounded=0;labelBackgroundColor=none;fontColor=#FFFFFF;" parent="7sJCCT2JWIlp2gaFB4CZ-41" vertex="1">
                    <mxGeometry x="20" y="10" width="110" height="30" as="geometry"/>
                </mxCell>
                <mxCell id="7sJCCT2JWIlp2gaFB4CZ-43" value="" style="group" parent="1" vertex="1" connectable="0">
                    <mxGeometry x="468.5" y="360" width="150" height="50" as="geometry"/>
                </mxCell>
                <mxCell id="7sJCCT2JWIlp2gaFB4CZ-44" value="" style="rounded=1;whiteSpace=wrap;html=1;labelBackgroundColor=none;fillColor=#182E3E;strokeColor=#FFFFFF;fontColor=#FFFFFF;" parent="7sJCCT2JWIlp2gaFB4CZ-43" vertex="1">
                    <mxGeometry width="150" height="50" as="geometry"/>
                </mxCell>
                <mxCell id="7sJCCT2JWIlp2gaFB4CZ-45" value="&lt;font style=&quot;font-size: 15px; color: rgb(255, 255, 255);&quot;&gt;Overlap-Add&lt;/font&gt;" style="text;html=1;align=center;verticalAlign=middle;whiteSpace=wrap;rounded=0;labelBackgroundColor=none;fontColor=#FFFFFF;" parent="7sJCCT2JWIlp2gaFB4CZ-43" vertex="1">
                    <mxGeometry x="10" y="10" width="130" height="30" as="geometry"/>
                </mxCell>
                <mxCell id="18" value="" style="group" parent="1" vertex="1" connectable="0">
                    <mxGeometry x="468.5" y="440" width="150" height="50" as="geometry"/>
                </mxCell>
                <mxCell id="19" value="" style="rounded=1;whiteSpace=wrap;html=1;labelBackgroundColor=none;fillColor=#182E3E;strokeColor=#FFFFFF;fontColor=#FFFFFF;" parent="18" vertex="1">
                    <mxGeometry width="150" height="50" as="geometry"/>
                </mxCell>
                <mxCell id="20" value="&lt;span style=&quot;font-size: 15px;&quot;&gt;&lt;font style=&quot;color: rgb(255, 255, 255);&quot;&gt;Summing Channels&lt;/font&gt;&lt;/span&gt;" style="text;html=1;align=center;verticalAlign=middle;whiteSpace=wrap;rounded=0;labelBackgroundColor=none;fontColor=#FFFFFF;" parent="18" vertex="1">
                    <mxGeometry x="45" y="10" width="60" height="30" as="geometry"/>
                </mxCell>
                <mxCell id="21" style="edgeStyle=none;html=1;exitX=0.5;exitY=1;exitDx=0;exitDy=0;entryX=0.5;entryY=0;entryDx=0;entryDy=0;strokeColor=light-dark(#234450,#000000);" parent="1" source="19" target="7sJCCT2JWIlp2gaFB4CZ-12" edge="1">
                    <mxGeometry relative="1" as="geometry"/>
                </mxCell>
                <mxCell id="25" style="edgeStyle=none;html=1;exitX=0.5;exitY=1;exitDx=0;exitDy=0;entryX=0.5;entryY=0;entryDx=0;entryDy=0;" parent="1" source="7sJCCT2JWIlp2gaFB4CZ-12" target="7sJCCT2JWIlp2gaFB4CZ-15" edge="1">
                    <mxGeometry relative="1" as="geometry"/>
                </mxCell>
                <mxCell id="26" style="edgeStyle=none;html=1;exitX=0.5;exitY=1;exitDx=0;exitDy=0;entryX=0.5;entryY=0;entryDx=0;entryDy=0;" parent="1" source="7sJCCT2JWIlp2gaFB4CZ-15" target="7sJCCT2JWIlp2gaFB4CZ-13" edge="1">
                    <mxGeometry relative="1" as="geometry"/>
                </mxCell>
                <mxCell id="27" value="" style="group" parent="1" vertex="1" connectable="0">
                    <mxGeometry x="667" y="270" width="150" height="50" as="geometry"/>
                </mxCell>
                <mxCell id="28" value="" style="rounded=1;whiteSpace=wrap;html=1;labelBackgroundColor=none;fillColor=#182E3E;strokeColor=#FFFFFF;fontColor=#FFFFFF;" parent="27" vertex="1">
                    <mxGeometry width="150" height="50" as="geometry"/>
                </mxCell>
                <mxCell id="29" value="&lt;span style=&quot;font-size: 15px;&quot;&gt;&lt;font style=&quot;color: rgb(255, 255, 255);&quot;&gt;Overlap-Add Buffer&lt;/font&gt;&lt;/span&gt;" style="text;html=1;align=center;verticalAlign=middle;whiteSpace=wrap;rounded=0;labelBackgroundColor=none;fontColor=#FFFFFF;" parent="27" vertex="1">
                    <mxGeometry x="10" y="10" width="130" height="30" as="geometry"/>
                </mxCell>
                <mxCell id="30" style="edgeStyle=none;html=1;exitX=1;exitY=0.5;exitDx=0;exitDy=0;entryX=0;entryY=0.5;entryDx=0;entryDy=0;" parent="1" source="7sJCCT2JWIlp2gaFB4CZ-10" target="28" edge="1">
                    <mxGeometry relative="1" as="geometry"/>
                </mxCell>
                <mxCell id="37" style="edgeStyle=none;html=1;exitX=0.5;exitY=1;exitDx=0;exitDy=0;entryX=0.5;entryY=0;entryDx=0;entryDy=0;" parent="1" source="7sJCCT2JWIlp2gaFB4CZ-10" target="7sJCCT2JWIlp2gaFB4CZ-44" edge="1">
                    <mxGeometry relative="1" as="geometry"/>
                </mxCell>
                <mxCell id="40" value="" style="group" parent="1" vertex="1" connectable="0">
                    <mxGeometry x="727" y="360" width="50" height="50" as="geometry"/>
                </mxCell>
                <mxCell id="41" value="" style="rounded=1;whiteSpace=wrap;html=1;labelBackgroundColor=none;fillColor=#182E3E;strokeColor=#FFFFFF;fontColor=#FFFFFF;" parent="40" vertex="1">
                    <mxGeometry x="-10" width="50" height="50" as="geometry"/>
                </mxCell>
                <mxCell id="42" value="&lt;span style=&quot;font-size: 15px;&quot;&gt;&lt;font style=&quot;color: rgb(255, 255, 255);&quot;&gt;Delay&lt;/font&gt;&lt;/span&gt;" style="text;html=1;align=center;verticalAlign=middle;whiteSpace=wrap;rounded=0;labelBackgroundColor=none;fontColor=#FFFFFF;" parent="40" vertex="1">
                    <mxGeometry x="5" y="10" width="20" height="30" as="geometry"/>
                </mxCell>
                <mxCell id="43" style="edgeStyle=none;html=1;exitX=0.5;exitY=1;exitDx=0;exitDy=0;entryX=0.5;entryY=0;entryDx=0;entryDy=0;" parent="1" source="28" target="41" edge="1">
                    <mxGeometry relative="1" as="geometry">
                        <mxPoint x="747" y="350" as="targetPoint"/>
                    </mxGeometry>
                </mxCell>
                <mxCell id="44" style="edgeStyle=none;html=1;exitX=0;exitY=0.5;exitDx=0;exitDy=0;entryX=1.003;entryY=0.309;entryDx=0;entryDy=0;entryPerimeter=0;" parent="1" source="41" target="16" edge="1">
                    <mxGeometry relative="1" as="geometry"/>
                </mxCell>
                <mxCell id="46" style="edgeStyle=none;html=1;exitX=0.5;exitY=1;exitDx=0;exitDy=0;entryX=0.5;entryY=0;entryDx=0;entryDy=0;" parent="1" source="7sJCCT2JWIlp2gaFB4CZ-44" target="19" edge="1">
                    <mxGeometry relative="1" as="geometry"/>
                </mxCell>
                <mxCell id="48" value="" style="group;fillColor=none;" parent="1" vertex="1" connectable="0">
                    <mxGeometry x="65" y="-60" width="150" height="50" as="geometry"/>
                </mxCell>
                <mxCell id="49" value="" style="rounded=1;whiteSpace=wrap;html=1;labelBackgroundColor=none;fillColor=#182E3E;strokeColor=#FFFFFF;fontColor=#FFFFFF;" parent="48" vertex="1">
                    <mxGeometry width="150" height="50" as="geometry"/>
                </mxCell>
                <mxCell id="50" value="&lt;font style=&quot;font-size: 14px; color: rgb(255, 255, 255);&quot;&gt;Audio File&lt;/font&gt;" style="text;html=1;align=center;verticalAlign=middle;whiteSpace=wrap;rounded=0;labelBackgroundColor=none;fontColor=#FFFFFF;" parent="48" vertex="1">
                    <mxGeometry x="20" y="10" width="110" height="30" as="geometry"/>
                </mxCell>
                <mxCell id="51" style="edgeStyle=none;html=1;exitX=0.5;exitY=1;exitDx=0;exitDy=0;entryX=0.5;entryY=0;entryDx=0;entryDy=0;" parent="1" source="49" target="3l54H0jpk-vekhEGEyEh-1" edge="1">
                    <mxGeometry relative="1" as="geometry"/>
                </mxCell>
                <mxCell id="57" style="html=1;entryX=0.25;entryY=0;entryDx=0;entryDy=0;edgeStyle=elbowEdgeStyle;elbow=vertical;exitX=0.458;exitY=0.978;exitDx=0;exitDy=0;exitPerimeter=0;" parent="1" source="52" edge="1">
                    <mxGeometry relative="1" as="geometry">
                        <mxPoint x="448.5" y="-30" as="sourcePoint"/>
                        <mxPoint x="497" y="20" as="targetPoint"/>
                    </mxGeometry>
                </mxCell>
                <mxCell id="52" value="" style="html=1;verticalLabelPosition=bottom;align=center;labelBackgroundColor=#ffffff;verticalAlign=top;strokeWidth=2;strokeColor=#0080F0;shadow=0;dashed=0;shape=mxgraph.ios7.icons.microphone;" parent="1" vertex="1">
                    <mxGeometry x="451.5" y="-60" width="12" height="30" as="geometry"/>
                </mxCell>
                <mxCell id="53" value="" style="html=1;verticalLabelPosition=bottom;align=center;labelBackgroundColor=#ffffff;verticalAlign=top;strokeWidth=2;strokeColor=#0080F0;shadow=0;dashed=0;shape=mxgraph.ios7.icons.microphone;" parent="1" vertex="1">
                    <mxGeometry x="506" y="-60" width="12" height="30" as="geometry"/>
                </mxCell>
                <mxCell id="54" value="" style="html=1;verticalLabelPosition=bottom;align=center;labelBackgroundColor=#ffffff;verticalAlign=top;strokeWidth=2;strokeColor=#0080F0;shadow=0;dashed=0;shape=mxgraph.ios7.icons.microphone;" parent="1" vertex="1">
                    <mxGeometry x="566" y="-60" width="12" height="30" as="geometry"/>
                </mxCell>
                <mxCell id="60" style="edgeStyle=elbowEdgeStyle;html=1;entryX=0.75;entryY=0;entryDx=0;entryDy=0;elbow=vertical;exitX=0.486;exitY=0.919;exitDx=0;exitDy=0;exitPerimeter=0;" parent="1" source="55" edge="1">
                    <mxGeometry relative="1" as="geometry">
                        <mxPoint x="632.5" y="-30" as="sourcePoint"/>
                        <mxPoint x="587" y="20" as="targetPoint"/>
                    </mxGeometry>
                </mxCell>
                <mxCell id="55" value="" style="html=1;verticalLabelPosition=bottom;align=center;labelBackgroundColor=#ffffff;verticalAlign=top;strokeWidth=2;strokeColor=#0080F0;shadow=0;dashed=0;shape=mxgraph.ios7.icons.microphone;" parent="1" vertex="1">
                    <mxGeometry x="620.5" y="-60" width="12" height="30" as="geometry"/>
                </mxCell>
                <mxCell id="58" style="edgeStyle=elbowEdgeStyle;html=1;elbow=vertical;" parent="1" source="53" edge="1">
                    <mxGeometry relative="1" as="geometry">
                        <mxPoint x="527" y="19" as="targetPoint"/>
                    </mxGeometry>
                </mxCell>
                <mxCell id="59" style="edgeStyle=elbowEdgeStyle;html=1;elbow=vertical;entryX=0.59;entryY=0;entryDx=0;entryDy=0;entryPerimeter=0;" parent="1" source="54" target="7sJCCT2JWIlp2gaFB4CZ-4" edge="1">
                    <mxGeometry relative="1" as="geometry">
                        <mxPoint x="562" y="20" as="targetPoint"/>
                    </mxGeometry>
                </mxCell>
                <mxCell id="67" value="" style="edgeStyle=elbowEdgeStyle;html=1;exitX=0.5;exitY=1;exitDx=0;exitDy=0;entryX=0;entryY=0.5;entryDx=0;entryDy=0;" parent="1" source="62" target="7sJCCT2JWIlp2gaFB4CZ-10" edge="1">
                    <mxGeometry x="0.6041" y="-15" relative="1" as="geometry">
                        <mxPoint x="427" y="300" as="targetPoint"/>
                        <Array as="points">
                            <mxPoint x="342" y="200"/>
                        </Array>
                        <mxPoint as="offset"/>
                    </mxGeometry>
                </mxCell>
                <mxCell id="69" value="" style="group" parent="1" vertex="1" connectable="0">
                    <mxGeometry x="267" y="20" width="150" height="100" as="geometry"/>
                </mxCell>
                <mxCell id="62" value="" style="rounded=1;whiteSpace=wrap;html=1;labelBackgroundColor=none;fillColor=#182E3E;strokeColor=#FFFFFF;fontColor=#FFFFFF;" parent="69" vertex="1">
                    <mxGeometry width="150" height="100" as="geometry"/>
                </mxCell>
                <mxCell id="61" value="" style="group;fontSize=14;fillColor=#bac8d3;strokeColor=#23445d;" parent="69" vertex="1" connectable="0">
                    <mxGeometry width="150" height="100" as="geometry"/>
                </mxCell>
                <mxCell id="63" value="&lt;font style=&quot;color: rgb(0, 0, 0);&quot;&gt;Frontend&lt;/font&gt;&lt;div&gt;&lt;font style=&quot;color: rgb(0, 0, 0);&quot;&gt;Parameter Input&lt;/font&gt;&lt;/div&gt;" style="text;html=1;align=center;verticalAlign=middle;whiteSpace=wrap;rounded=0;labelBackgroundColor=none;fontColor=#FFFFFF;fontSize=14;" parent="61" vertex="1">
                    <mxGeometry x="20" y="20" width="110" height="60" as="geometry"/>
                </mxCell>
                <mxCell id="71" value="" style="edgeStyle=elbowEdgeStyle;html=1;exitX=0.5;exitY=1;exitDx=0;exitDy=0;entryX=1;entryY=0.5;entryDx=0;entryDy=0;" parent="1" target="3l54H0jpk-vekhEGEyEh-4" edge="1">
                    <mxGeometry x="0.5974" y="15" relative="1" as="geometry">
                        <mxPoint x="341" y="120" as="sourcePoint"/>
                        <mxPoint x="220" y="295" as="targetPoint"/>
                        <Array as="points">
                            <mxPoint x="341" y="200"/>
                        </Array>
                        <mxPoint as="offset"/>
                    </mxGeometry>
                </mxCell>
                <mxCell id="72" value="" style="edgeStyle=elbowEdgeStyle;html=1;exitX=0.5;exitY=1;exitDx=0;exitDy=0;" parent="1" edge="1" target="7sJCCT2JWIlp2gaFB4CZ-13">
                    <mxGeometry x="0.83" y="15" relative="1" as="geometry">
                        <mxPoint x="341.5" y="120" as="sourcePoint"/>
                        <mxPoint x="456.5" y="705" as="targetPoint"/>
                        <Array as="points">
                            <mxPoint x="341.5" y="200"/>
                        </Array>
                        <mxPoint as="offset"/>
                    </mxGeometry>
                </mxCell>
                <mxCell id="73" value="" style="edgeStyle=elbowEdgeStyle;html=1;exitX=0.5;exitY=1;exitDx=0;exitDy=0;entryX=1;entryY=0.5;entryDx=0;entryDy=0;" parent="1" target="3l54H0jpk-vekhEGEyEh-6" edge="1">
                    <mxGeometry x="0.7368" y="-15" relative="1" as="geometry">
                        <mxPoint x="341" y="130" as="sourcePoint"/>
                        <mxPoint x="236" y="465" as="targetPoint"/>
                        <Array as="points">
                            <mxPoint x="341" y="210"/>
                        </Array>
                        <mxPoint as="offset"/>
                    </mxGeometry>
                </mxCell>
                <mxCell id="80" value="" style="edgeStyle=elbowEdgeStyle;html=1;entryX=0;entryY=0.5;entryDx=0;entryDy=0;" parent="1" target="7sJCCT2JWIlp2gaFB4CZ-15" edge="1">
                    <mxGeometry x="0.8052" y="15" relative="1" as="geometry">
                        <mxPoint x="342" y="120" as="sourcePoint"/>
                        <mxPoint x="464" y="715" as="targetPoint"/>
                        <Array as="points">
                            <mxPoint x="342" y="715"/>
                        </Array>
                        <mxPoint as="offset"/>
                    </mxGeometry>
                </mxCell>
                <mxCell id="97" value="&lt;b&gt;Plotdata&lt;/b&gt;" style="text;html=1;align=center;verticalAlign=middle;resizable=0;points=[];autosize=1;strokeColor=#6c8ebf;fillColor=#dae8fc;rounded=1;" vertex="1" parent="1">
                    <mxGeometry x="610" y="748" width="70" height="30" as="geometry"/>
                </mxCell>
                <mxCell id="98" value="&lt;b&gt;Plotdata&lt;/b&gt;" style="text;html=1;align=center;verticalAlign=middle;resizable=0;points=[];autosize=1;strokeColor=#6c8ebf;fillColor=#dae8fc;rounded=1;" vertex="1" parent="1">
                    <mxGeometry x="4.5" y="510" width="70" height="30" as="geometry"/>
                </mxCell>
                <mxCell id="99" value="&lt;i style=&quot;font-size: 11px;&quot;&gt;&lt;font style=&quot;font-size: 12px; color: rgb(63, 63, 63);&quot;&gt;&quot;hilbertWindow&quot;&lt;/font&gt;&lt;/i&gt;" style="text;html=1;align=center;verticalAlign=middle;resizable=0;points=[];autosize=1;strokeColor=none;fillColor=none;" vertex="1" parent="1">
                    <mxGeometry x="222" y="260" width="110" height="30" as="geometry"/>
                </mxCell>
                <mxCell id="101" value="&lt;i style=&quot;font-size: 11px;&quot;&gt;&lt;font style=&quot;font-size: 12px; color: rgb(63, 63, 63);&quot;&gt;&quot;hilbertWindow&quot;&lt;/font&gt;&lt;/i&gt;" style="text;html=1;align=center;verticalAlign=middle;resizable=0;points=[];autosize=1;strokeColor=none;fillColor=none;" vertex="1" parent="1">
                    <mxGeometry x="347.5" y="260" width="110" height="30" as="geometry"/>
                </mxCell>
                <mxCell id="102" value="&lt;i style=&quot;font-size: 11px;&quot;&gt;&lt;font style=&quot;font-size: 12px; color: rgb(63, 63, 63);&quot;&gt;&quot;windowSize&quot;&lt;/font&gt;&lt;/i&gt;" style="text;html=1;align=center;verticalAlign=middle;resizable=0;points=[];autosize=1;strokeColor=none;fillColor=none;" vertex="1" parent="1">
                    <mxGeometry x="227" y="294" width="100" height="30" as="geometry"/>
                </mxCell>
                <mxCell id="103" value="&lt;i style=&quot;font-size: 11px;&quot;&gt;&lt;font style=&quot;font-size: 12px; color: rgb(63, 63, 63);&quot;&gt;&quot;windowSize&quot;&lt;/font&gt;&lt;/i&gt;" style="text;html=1;align=center;verticalAlign=middle;resizable=0;points=[];autosize=1;strokeColor=none;fillColor=none;" vertex="1" parent="1">
                    <mxGeometry x="352.5" y="294" width="100" height="30" as="geometry"/>
                </mxCell>
                <mxCell id="104" value="&lt;i&gt;&lt;font style=&quot;color: rgb(63, 63, 63);&quot;&gt;&quot;broadbandThreshold&quot;&lt;/font&gt;&lt;/i&gt;" style="text;html=1;align=center;verticalAlign=middle;resizable=0;points=[];autosize=1;strokeColor=none;fillColor=none;" vertex="1" parent="1">
                    <mxGeometry x="205.5" y="437" width="140" height="30" as="geometry"/>
                </mxCell>
                <mxCell id="105" value="&lt;i&gt;&lt;font style=&quot;color: rgb(63, 63, 63);&quot;&gt;&quot;broadbandThreshold&quot;&lt;/font&gt;&lt;/i&gt;" style="text;html=1;align=center;verticalAlign=middle;resizable=0;points=[];autosize=1;strokeColor=none;fillColor=none;" vertex="1" parent="1">
                    <mxGeometry x="334.5" y="680" width="140" height="30" as="geometry"/>
                </mxCell>
                <mxCell id="107" value="&lt;i style=&quot;font-size: 11px;&quot;&gt;&lt;font style=&quot;font-size: 12px; color: rgb(63, 63, 63);&quot;&gt;&quot;BufferLength&quot;&lt;/font&gt;&lt;/i&gt;" style="text;html=1;align=center;verticalAlign=middle;resizable=0;points=[];autosize=1;strokeColor=none;fillColor=none;" vertex="1" parent="1">
                    <mxGeometry x="354.5" y="598" width="100" height="30" as="geometry"/>
                </mxCell>
                <mxCell id="108" style="edgeStyle=elbowEdgeStyle;html=1;exitX=0.5;exitY=0;exitDx=0;exitDy=0;startSize=6;elbow=vertical;" edge="1" parent="1">
                    <mxGeometry relative="1" as="geometry">
                        <mxPoint x="543" y="730" as="sourcePoint"/>
                        <mxPoint x="518" y="830" as="targetPoint"/>
                        <Array as="points">
                            <mxPoint x="528" y="830"/>
                        </Array>
                    </mxGeometry>
                </mxCell>
                <mxCell id="109" value="" style="group;fontSize=14;fillColor=#bac8d3;strokeColor=#23445d;rounded=1;arcSize=50;" vertex="1" connectable="0" parent="1">
                    <mxGeometry x="367" y="800" width="150" height="60" as="geometry"/>
                </mxCell>
                <mxCell id="110" value="&lt;font color=&quot;#000000&quot;&gt;Kafka&lt;/font&gt;" style="text;html=1;align=center;verticalAlign=middle;whiteSpace=wrap;rounded=0;labelBackgroundColor=none;fontColor=#FFFFFF;fontSize=14;" vertex="1" parent="109">
                    <mxGeometry x="20" y="12" width="110" height="36" as="geometry"/>
                </mxCell>
                <mxCell id="112" value="" style="group;fontSize=14;fillColor=#bac8d3;strokeColor=#23445d;rounded=1;arcSize=50;" vertex="1" connectable="0" parent="1">
                    <mxGeometry x="568" y="800" width="150" height="60" as="geometry"/>
                </mxCell>
                <mxCell id="113" value="&lt;font color=&quot;#000000&quot;&gt;WebSocket&lt;/font&gt;" style="text;html=1;align=center;verticalAlign=middle;whiteSpace=wrap;rounded=0;labelBackgroundColor=none;fontColor=#FFFFFF;fontSize=14;" vertex="1" parent="112">
                    <mxGeometry x="20" y="12" width="110" height="36" as="geometry"/>
                </mxCell>
                <mxCell id="114" style="edgeStyle=elbowEdgeStyle;html=1;exitX=0.5;exitY=0;exitDx=0;exitDy=0;startSize=6;elbow=vertical;" edge="1" parent="1">
                    <mxGeometry relative="1" as="geometry">
                        <mxPoint x="543" y="730" as="sourcePoint"/>
                        <mxPoint x="568" y="830" as="targetPoint"/>
                        <Array as="points">
                            <mxPoint x="558" y="830"/>
                        </Array>
                    </mxGeometry>
                </mxCell>
                <mxCell id="115" value="&lt;b&gt;Bool Trigger&lt;/b&gt;" style="text;html=1;align=center;verticalAlign=middle;resizable=0;points=[];autosize=1;strokeColor=#6c8ebf;fillColor=#dae8fc;rounded=1;" vertex="1" parent="1">
                    <mxGeometry x="498" y="750" width="90" height="30" as="geometry"/>
                </mxCell>
                <mxCell id="123" value="&lt;b&gt;Bool Trigger&lt;/b&gt;" style="text;html=1;align=center;verticalAlign=middle;resizable=0;points=[];autosize=1;strokeColor=#6c8ebf;fillColor=#dae8fc;rounded=1;" vertex="1" parent="1">
                    <mxGeometry x="95.5" y="510" width="90" height="30" as="geometry"/>
                </mxCell>
                <mxCell id="86" value="" style="edgeStyle=elbowEdgeStyle;html=1;entryX=0.488;entryY=-0.062;entryDx=0;entryDy=0;entryPerimeter=0;" edge="1" parent="1" source="3l54H0jpk-vekhEGEyEh-5" target="98">
                    <mxGeometry relative="1" as="geometry">
                        <mxPoint x="39" y="560" as="targetPoint"/>
                        <Array as="points">
                            <mxPoint x="39" y="471"/>
                        </Array>
                    </mxGeometry>
                </mxCell>
                <mxCell id="125" style="edgeStyle=none;html=1;entryX=0.495;entryY=-0.062;entryDx=0;entryDy=0;entryPerimeter=0;" edge="1" parent="1" source="3l54H0jpk-vekhEGEyEh-6" target="123">
                    <mxGeometry relative="1" as="geometry"/>
                </mxCell>
            </root>
        </mxGraphModel>
    </diagram>
</mxfile>